<svg width="197" height="236" viewBox="0 0 197 236" fill="none" xmlns="http://www.w3.org/2000/svg">
<mask id="mask0" mask-type="alpha" maskUnits="userSpaceOnUse" x="0" y="0" width="197" height="236">
<rect width="197" height="236" rx="4" fill="#C4C4C4"/>
</mask>
<g mask="url(#mask0)">
<path d="M194.375 88.0788C194.308 87.8276 194.165 87.6108 194.075 87.3799C193.933 87.0635 193.831 86.7365 193.667 86.4404C193.537 86.2201 193.365 86.0537 193.212 85.8537C192.995 85.5718 192.801 85.2696 192.551 85.0248C192.379 84.8583 192.177 84.7422 191.999 84.6057C191.71 84.3715 191.433 84.1338 191.115 83.9498C190.897 83.824 190.653 83.7617 190.429 83.6659C190.125 83.5348 189.84 83.3703 189.507 83.2896C189.49 83.2799 189.463 83.287 189.433 83.2808C189.403 83.2747 189.387 83.265 189.357 83.2589L86.0882 57.8712C83.8108 57.3052 81.3779 57.9571 79.6886 59.586L2.93614 133.21C2.91323 133.23 2.91678 133.244 2.89388 133.264C2.87097 133.284 2.84453 133.291 2.82163 133.312C2.5768 133.561 2.41225 133.846 2.21417 134.112C2.06803 134.307 1.88836 134.483 1.77221 134.684C1.57508 135.006 1.47145 135.36 1.33429 135.694C1.25167 135.915 1.13198 136.103 1.06612 136.333C0.975718 136.683 0.945291 137.046 0.898098 137.398C0.865771 137.648 0.813135 137.875 0.794031 138.121C0.799727 138.459 0.865398 138.81 0.914303 139.151C0.991298 139.386 0.958971 139.635 1.02629 139.886C1.02983 139.9 1.04659 139.909 1.05014 139.923C1.05368 139.936 1.044 139.953 1.04754 139.966L25.164 229.97C25.7982 232.336 27.646 234.208 30.0239 234.832L133.968 262.689C135.146 263.011 136.374 262.994 137.524 262.685C138.675 262.377 139.747 261.778 140.606 260.91L216.682 184.817C218.426 183.074 219.094 180.543 218.46 178.176L194.34 88.1591C194.337 88.1458 194.333 88.1326 194.329 88.1194C194.366 88.0955 194.379 88.092 194.375 88.0788ZM139.438 128.506L106.562 120.423L94.1192 73.9865L174.264 93.68L139.438 128.506ZM80.8309 77.5471L93.2699 123.97L68.844 147.422L21.2866 134.684L80.8309 77.5471ZM17.4411 147.888L106.039 171.623L126.045 246.289L37.4478 222.554L17.4411 147.888ZM139.324 242.746L119.314 168.066L184.187 103.209L204.194 177.875L139.324 242.746Z" fill="white" fill-opacity="0.16"/>
</g>
</svg>
